<svg id="visual" viewBox="0 0 900 600" width="900" height="600" xmlns="http://www.w3.org/2000/svg" xmlns:xlink="http://www.w3.org/1999/xlink" version="1.1"><g stroke-width="1" stroke-linejoin="bevel"><path d="M469 304L467 196L356.5 213Z" fill="#3d77af" stroke="#3d77af"></path><path d="M356.5 213L349.5 313L469 304Z" fill="#2d3542" stroke="#2d3542"></path><path d="M349.5 313L367.5 386L469 304Z" fill="#3c83c3" stroke="#3c83c3"></path><path d="M467 196L337.5 105L356.5 213Z" fill="#222222" stroke="#222222"></path><path d="M356.5 213L229 287L349.5 313Z" fill="#314053" stroke="#314053"></path><path d="M591.5 280L588.5 213L469 304Z" fill="#385576" stroke="#385576"></path><path d="M469 304L588.5 213L467 196Z" fill="#314053" stroke="#314053"></path><path d="M467 196L475 86L337.5 105Z" fill="#222222" stroke="#222222"></path><path d="M553.5 125L475 86L467 196Z" fill="#222222" stroke="#222222"></path><path d="M544.5 427L591.5 280L469 304Z" fill="#3b8fd7" stroke="#3b8fd7"></path><path d="M367.5 386L459 423L469 304Z" fill="#385576" stroke="#385576"></path><path d="M588.5 213L553.5 125L467 196Z" fill="#3d77af" stroke="#3d77af"></path><path d="M206 220L229 287L356.5 213Z" fill="#314053" stroke="#314053"></path><path d="M349.5 313L257 424L367.5 386Z" fill="#222222" stroke="#222222"></path><path d="M337.5 105L206 220L356.5 213Z" fill="#354a64" stroke="#354a64"></path><path d="M459 423L544.5 427L469 304Z" fill="#282c32" stroke="#282c32"></path><path d="M229 287L257 424L349.5 313Z" fill="#282c32" stroke="#282c32"></path><path d="M367.5 386L351.5 495L459 423Z" fill="#2d3542" stroke="#2d3542"></path><path d="M459 423L543.5 501L544.5 427Z" fill="#222222" stroke="#222222"></path><path d="M108.5 371L257 424L229 287Z" fill="#354a64" stroke="#354a64"></path><path d="M591.5 0L450 0L475 86Z" fill="#3c83c3" stroke="#3c83c3"></path><path d="M475 86L360.5 0L337.5 105Z" fill="#314053" stroke="#314053"></path><path d="M337.5 105L197 72L206 220Z" fill="#3b8fd7" stroke="#3b8fd7"></path><path d="M257 424L351.5 495L367.5 386Z" fill="#3c6c9c" stroke="#3c6c9c"></path><path d="M544.5 427L665 311L591.5 280Z" fill="#3a6089" stroke="#3a6089"></path><path d="M591.5 280L696 203L588.5 213Z" fill="#2d3542" stroke="#2d3542"></path><path d="M588.5 213L642 130L553.5 125Z" fill="#3c83c3" stroke="#3c83c3"></path><path d="M696 203L642 130L588.5 213Z" fill="#3d77af" stroke="#3d77af"></path><path d="M553.5 125L591.5 0L475 86Z" fill="#3b8fd7" stroke="#3b8fd7"></path><path d="M450 0L360.5 0L475 86Z" fill="#3a6089" stroke="#3a6089"></path><path d="M351.5 495L462 519L459 423Z" fill="#3d77af" stroke="#3d77af"></path><path d="M544.5 427L703 427L665 311Z" fill="#282c32" stroke="#282c32"></path><path d="M462 519L543.5 501L459 423Z" fill="#3b8fd7" stroke="#3b8fd7"></path><path d="M665 311L696 203L591.5 280Z" fill="#385576" stroke="#385576"></path><path d="M250 0L197 72L337.5 105Z" fill="#282c32" stroke="#282c32"></path><path d="M360.5 0L250 0L337.5 105Z" fill="#3d77af" stroke="#3d77af"></path><path d="M642 130L591.5 0L553.5 125Z" fill="#314053" stroke="#314053"></path><path d="M661 0L591.5 0L642 130Z" fill="#314053" stroke="#314053"></path><path d="M197 72L101.5 223L206 220Z" fill="#3d77af" stroke="#3d77af"></path><path d="M206 220L101.5 223L229 287Z" fill="#385576" stroke="#385576"></path><path d="M257 424L221 507L351.5 495Z" fill="#3b8fd7" stroke="#3b8fd7"></path><path d="M351.5 495L436 600L462 519Z" fill="#2d3542" stroke="#2d3542"></path><path d="M110.5 479L221 507L257 424Z" fill="#385576" stroke="#385576"></path><path d="M87.5 316L108.5 371L229 287Z" fill="#3c6c9c" stroke="#3c6c9c"></path><path d="M700 489L703 427L544.5 427Z" fill="#3c6c9c" stroke="#3c6c9c"></path><path d="M665 311L766.5 268L696 203Z" fill="#2d3542" stroke="#2d3542"></path><path d="M101.5 223L87.5 316L229 287Z" fill="#3a6089" stroke="#3a6089"></path><path d="M758.5 374L766.5 268L665 311Z" fill="#354a64" stroke="#354a64"></path><path d="M768.5 132L661 0L642 130Z" fill="#2d3542" stroke="#2d3542"></path><path d="M768.5 132L642 130L696 203Z" fill="#354a64" stroke="#354a64"></path><path d="M462 519L569.5 600L543.5 501Z" fill="#3d77af" stroke="#3d77af"></path><path d="M543.5 501L700 489L544.5 427Z" fill="#3b8fd7" stroke="#3b8fd7"></path><path d="M347.5 600L436 600L351.5 495Z" fill="#3b8fd7" stroke="#3b8fd7"></path><path d="M236 600L347.5 600L351.5 495Z" fill="#3a6089" stroke="#3a6089"></path><path d="M766.5 268L775.5 230L696 203Z" fill="#3d77af" stroke="#3d77af"></path><path d="M703 427L758.5 374L665 311Z" fill="#282c32" stroke="#282c32"></path><path d="M766.5 268L900 296L775.5 230Z" fill="#354a64" stroke="#354a64"></path><path d="M569.5 600L700 489L543.5 501Z" fill="#3b8fd7" stroke="#3b8fd7"></path><path d="M703 427L770.5 514L758.5 374Z" fill="#314053" stroke="#314053"></path><path d="M775.5 230L768.5 132L696 203Z" fill="#222222" stroke="#222222"></path><path d="M197 72L83.5 90L101.5 223Z" fill="#3b8fd7" stroke="#3b8fd7"></path><path d="M101.5 223L0 211L87.5 316Z" fill="#354a64" stroke="#354a64"></path><path d="M122.5 0L83.5 90L197 72Z" fill="#314053" stroke="#314053"></path><path d="M436 600L569.5 600L462 519Z" fill="#3a6089" stroke="#3a6089"></path><path d="M0 427L110.5 479L108.5 371Z" fill="#314053" stroke="#314053"></path><path d="M108.5 371L110.5 479L257 424Z" fill="#385576" stroke="#385576"></path><path d="M221 507L236 600L351.5 495Z" fill="#2d3542" stroke="#2d3542"></path><path d="M250 0L122.5 0L197 72Z" fill="#3d77af" stroke="#3d77af"></path><path d="M95.5 600L236 600L221 507Z" fill="#282c32" stroke="#282c32"></path><path d="M0 113L101.5 223L83.5 90Z" fill="#3c83c3" stroke="#3c83c3"></path><path d="M0 113L0 211L101.5 223Z" fill="#3b8fd7" stroke="#3b8fd7"></path><path d="M87.5 316L0 327L108.5 371Z" fill="#282c32" stroke="#282c32"></path><path d="M0 211L0 327L87.5 316Z" fill="#3c83c3" stroke="#3c83c3"></path><path d="M569.5 600L685 600L700 489Z" fill="#282c32" stroke="#282c32"></path><path d="M700 489L770.5 514L703 427Z" fill="#314053" stroke="#314053"></path><path d="M685 600L770.5 514L700 489Z" fill="#314053" stroke="#314053"></path><path d="M758.5 374L900 296L766.5 268Z" fill="#3d77af" stroke="#3d77af"></path><path d="M0 0L0 113L83.5 90Z" fill="#3d77af" stroke="#3d77af"></path><path d="M0 327L0 427L108.5 371Z" fill="#314053" stroke="#314053"></path><path d="M110.5 479L95.5 600L221 507Z" fill="#2d3542" stroke="#2d3542"></path><path d="M900 188L768.5 132L775.5 230Z" fill="#314053" stroke="#314053"></path><path d="M900 97L816.5 0L768.5 132Z" fill="#3a6089" stroke="#3a6089"></path><path d="M768.5 132L816.5 0L661 0Z" fill="#222222" stroke="#222222"></path><path d="M0 501L95.5 600L110.5 479Z" fill="#3c83c3" stroke="#3c83c3"></path><path d="M900 378L900 296L758.5 374Z" fill="#3d77af" stroke="#3d77af"></path><path d="M900 296L900 188L775.5 230Z" fill="#3a6089" stroke="#3a6089"></path><path d="M0 427L0 501L110.5 479Z" fill="#222222" stroke="#222222"></path><path d="M122.5 0L0 0L83.5 90Z" fill="#354a64" stroke="#354a64"></path><path d="M770.5 514L900 378L758.5 374Z" fill="#354a64" stroke="#354a64"></path><path d="M900 188L900 97L768.5 132Z" fill="#314053" stroke="#314053"></path><path d="M685 600L786.5 600L770.5 514Z" fill="#282c32" stroke="#282c32"></path><path d="M770.5 514L900 516L900 378Z" fill="#3a6089" stroke="#3a6089"></path><path d="M900 97L900 0L816.5 0Z" fill="#385576" stroke="#385576"></path><path d="M0 501L0 600L95.5 600Z" fill="#3c6c9c" stroke="#3c6c9c"></path><path d="M786.5 600L900 516L770.5 514Z" fill="#385576" stroke="#385576"></path><path d="M786.5 600L900 600L900 516Z" fill="#354a64" stroke="#354a64"></path></g></svg>