<svg width="775" height="298" viewBox="0 0 775 298" fill="none" xmlns="http://www.w3.org/2000/svg">
<g clip-path="url(#clip0_1_2)">
<path d="M191.461 107.38H196.421C214.918 107.38 229.178 112.443 239.201 122.57C249.328 132.593 254.391 146.905 254.391 165.505C254.391 176.148 251.808 185.913 246.641 194.8C241.475 203.687 234.448 210.713 225.561 215.88C216.778 221.047 207.065 223.63 196.421 223.63H191.461V107.38ZM197.661 218.825C207.168 218.825 215.848 216.5 223.701 211.85C231.555 207.097 237.755 200.638 242.301 192.475C246.951 184.312 249.276 175.322 249.276 165.505C249.276 148.352 244.781 135.177 235.791 125.98C226.905 116.68 214.195 112.03 197.661 112.03H196.421V218.825H197.661ZM337.315 153.88L303.06 225.645L268.65 153.88H274.075L303.06 214.33L331.89 153.88H337.315ZM358.569 137.915C357.123 137.915 355.831 137.398 354.694 136.365C353.661 135.332 353.144 134.04 353.144 132.49C353.144 131.043 353.661 129.803 354.694 128.77C355.831 127.737 357.123 127.22 358.569 127.22C360.016 127.22 361.256 127.737 362.289 128.77C363.426 129.803 363.994 131.043 363.994 132.49C363.994 134.04 363.426 135.332 362.289 136.365C361.256 137.398 360.016 137.915 358.569 137.915ZM356.089 153.88H361.049V223.63H356.089V153.88ZM388.81 153.88H393.77V170C395.837 164.937 398.833 160.958 402.76 158.065C406.79 155.172 411.337 153.725 416.4 153.725C419.603 153.725 422.858 154.397 426.165 155.74V161.475C423.168 159.202 419.81 158.065 416.09 158.065C412.37 158.065 408.753 159.202 405.24 161.475C401.83 163.748 399.04 166.797 396.87 170.62C394.803 174.443 393.77 178.525 393.77 182.865V223.63H388.81V153.88ZM445.589 107.38H450.704V219.135H486.664V223.63H445.589V107.38ZM538.315 221.15C543.688 221.15 548.803 219.755 553.66 216.965C558.517 214.175 562.547 210.352 565.75 205.495V213.4C561.927 217.637 557.742 220.737 553.195 222.7C548.648 224.56 543.482 225.49 537.695 225.49C531.288 225.49 525.243 223.785 519.56 220.375C513.98 216.965 509.485 212.418 506.075 206.735C502.768 201.052 501.115 195.007 501.115 188.6C501.115 181.677 502.768 175.477 506.075 170C509.382 164.42 513.877 160.08 519.56 156.98C525.347 153.88 531.753 152.33 538.78 152.33C549.527 152.33 558.672 156.567 566.215 165.04L517.545 213.09C520.955 215.88 524.262 217.947 527.465 219.29C530.668 220.53 534.285 221.15 538.315 221.15ZM506.075 188.135C506.075 196.712 508.917 204.048 514.6 210.145L560.015 165.04C556.605 162.043 553.298 159.925 550.095 158.685C546.892 157.342 543.068 156.67 538.625 156.67C532.322 156.67 526.69 158.065 521.73 160.855C516.873 163.542 513.05 167.262 510.26 172.015C507.47 176.768 506.075 182.142 506.075 188.135ZM644.53 153.88L610.275 225.645L575.865 153.88H581.29L610.275 214.33L639.105 153.88H644.53ZM665.784 137.915C664.338 137.915 663.046 137.398 661.909 136.365C660.876 135.332 660.359 134.04 660.359 132.49C660.359 131.043 660.876 129.803 661.909 128.77C663.046 127.737 664.338 127.22 665.784 127.22C667.231 127.22 668.471 127.737 669.504 128.77C670.641 129.803 671.209 131.043 671.209 132.49C671.209 134.04 670.641 135.332 669.504 136.365C668.471 137.398 667.231 137.915 665.784 137.915ZM663.304 153.88H668.264V223.63H663.304V153.88Z" fill="white"/>
<path d="M191.461 107.38V106.38H190.461V107.38H191.461ZM239.201 122.57L238.49 123.273L238.498 123.281L239.201 122.57ZM246.641 194.8L247.506 195.303L246.641 194.8ZM225.561 215.88L225.059 215.015L225.054 215.018L225.561 215.88ZM191.461 223.63H190.461V224.63H191.461V223.63ZM223.701 211.85L224.211 212.71L224.219 212.705L223.701 211.85ZM242.301 192.475L241.432 191.98L241.428 191.988L242.301 192.475ZM235.791 125.98L235.068 126.671L235.076 126.679L235.791 125.98ZM196.421 112.03V111.03H195.421V112.03H196.421ZM196.421 218.825H195.421V219.825H196.421V218.825ZM191.461 108.38H196.421V106.38H191.461V108.38ZM196.421 108.38C214.734 108.38 228.706 113.388 238.49 123.273L239.912 121.866C229.649 111.498 215.102 106.38 196.421 106.38V108.38ZM238.498 123.281C248.382 133.064 253.391 147.087 253.391 165.505H255.391C255.391 146.723 250.274 132.123 239.905 121.859L238.498 123.281ZM253.391 165.505C253.391 175.978 250.851 185.569 245.777 194.297L247.506 195.303C252.764 186.258 255.391 176.318 255.391 165.505H253.391ZM245.777 194.297C240.697 203.034 233.795 209.936 225.059 215.015L226.064 216.744C235.1 211.491 242.252 204.339 247.506 195.303L245.777 194.297ZM225.054 215.018C216.431 220.09 206.895 222.63 196.421 222.63V224.63C207.235 224.63 217.124 222.003 226.068 216.742L225.054 215.018ZM196.421 222.63H191.461V224.63H196.421V222.63ZM192.461 223.63V107.38H190.461V223.63H192.461ZM197.661 219.825C207.339 219.825 216.197 217.456 224.211 212.71L223.192 210.989C215.499 215.544 206.996 217.825 197.661 217.825V219.825ZM224.219 212.705C232.224 207.86 238.545 201.274 243.175 192.961L241.428 191.988C236.964 200.003 230.885 206.333 223.183 210.994L224.219 212.705ZM243.17 192.97C247.91 184.649 250.276 175.487 250.276 165.505H248.276C248.276 175.156 245.992 183.974 241.432 191.98L243.17 192.97ZM250.276 165.505C250.276 148.18 245.733 134.72 236.506 125.281L235.076 126.679C243.829 135.633 248.276 148.523 248.276 165.505H250.276ZM236.514 125.289C227.389 115.739 214.385 111.03 197.661 111.03V113.03C214.004 113.03 226.42 117.621 235.068 126.671L236.514 125.289ZM197.661 111.03H196.421V113.03H197.661V111.03ZM195.421 112.03V218.825H197.421V112.03H195.421ZM196.421 219.825H197.661V217.825H196.421V219.825ZM337.315 153.88L338.217 154.311L338.9 152.88H337.315V153.88ZM303.06 225.645L302.158 226.077L303.062 227.962L303.962 226.076L303.06 225.645ZM268.65 153.88V152.88H267.061L267.748 154.312L268.65 153.88ZM274.075 153.88L274.977 153.448L274.705 152.88H274.075V153.88ZM303.06 214.33L302.158 214.762L303.062 216.648L303.963 214.76L303.06 214.33ZM331.89 153.88V152.88H331.259L330.987 153.449L331.89 153.88ZM336.413 153.449L302.158 225.214L303.962 226.076L338.217 154.311L336.413 153.449ZM303.962 225.213L269.552 153.448L267.748 154.312L302.158 226.077L303.962 225.213ZM268.65 154.88H274.075V152.88H268.65V154.88ZM273.173 154.312L302.158 214.762L303.962 213.898L274.977 153.448L273.173 154.312ZM303.963 214.76L332.793 154.31L330.987 153.449L302.157 213.899L303.963 214.76ZM331.89 154.88H337.315V152.88H331.89V154.88ZM354.694 136.365L353.987 137.072L354.004 137.089L354.022 137.105L354.694 136.365ZM354.694 128.77L354.022 128.03L354.004 128.046L353.987 128.063L354.694 128.77ZM362.289 128.77L361.582 129.477L361.599 129.494L361.617 129.51L362.289 128.77ZM362.289 136.365L361.617 135.625L361.599 135.641L361.582 135.658L362.289 136.365ZM356.089 153.88V152.88H355.089V153.88H356.089ZM361.049 153.88H362.049V152.88H361.049V153.88ZM361.049 223.63V224.63H362.049V223.63H361.049ZM356.089 223.63H355.089V224.63H356.089V223.63ZM358.569 136.915C357.388 136.915 356.332 136.502 355.367 135.625L354.022 137.105C355.33 138.294 356.858 138.915 358.569 138.915V136.915ZM355.401 135.658C354.568 134.824 354.144 133.793 354.144 132.49H352.144C352.144 134.287 352.754 135.839 353.987 137.072L355.401 135.658ZM354.144 132.49C354.144 131.311 354.554 130.325 355.401 129.477L353.987 128.063C352.769 129.281 352.144 130.775 352.144 132.49H354.144ZM355.367 129.51C356.332 128.632 357.388 128.22 358.569 128.22V126.22C356.858 126.22 355.33 126.841 354.022 128.03L355.367 129.51ZM358.569 128.22C359.748 128.22 360.734 128.629 361.582 129.477L362.996 128.063C361.778 126.844 360.284 126.22 358.569 126.22V128.22ZM361.617 129.51C362.559 130.367 362.994 131.344 362.994 132.49H364.994C364.994 130.742 364.293 129.24 362.962 128.03L361.617 129.51ZM362.994 132.49C362.994 133.761 362.543 134.783 361.617 135.625L362.962 137.105C364.309 135.88 364.994 134.319 364.994 132.49H362.994ZM361.582 135.658C360.734 136.506 359.748 136.915 358.569 136.915V138.915C360.284 138.915 361.778 138.291 362.996 137.072L361.582 135.658ZM356.089 154.88H361.049V152.88H356.089V154.88ZM360.049 153.88V223.63H362.049V153.88H360.049ZM361.049 222.63H356.089V224.63H361.049V222.63ZM357.089 223.63V153.88H355.089V223.63H357.089ZM388.81 153.88V152.88H387.81V153.88H388.81ZM393.77 153.88H394.77V152.88H393.77V153.88ZM393.77 170H392.77L394.696 170.378L393.77 170ZM402.76 158.065L402.177 157.252L402.167 157.26L402.76 158.065ZM426.165 155.74H427.165V155.067L426.541 154.813L426.165 155.74ZM426.165 161.475L425.561 162.272L427.165 163.489V161.475H426.165ZM405.24 161.475L404.697 160.635L404.685 160.643L405.24 161.475ZM396.87 170.62L396 170.126L395.995 170.135L395.99 170.144L396.87 170.62ZM393.77 223.63V224.63H394.77V223.63H393.77ZM388.81 223.63H387.81V224.63H388.81V223.63ZM388.81 154.88H393.77V152.88H388.81V154.88ZM392.77 153.88V170H394.77V153.88H392.77ZM394.696 170.378C396.702 165.464 399.592 161.641 403.353 158.87L402.167 157.26C398.075 160.275 394.972 164.41 392.844 169.622L394.696 170.378ZM403.343 158.877C407.2 156.109 411.541 154.725 416.4 154.725V152.725C411.132 152.725 406.381 154.235 402.177 157.253L403.343 158.877ZM416.4 154.725C419.46 154.725 422.588 155.366 425.789 156.666L426.541 154.813C423.129 153.427 419.746 152.725 416.4 152.725V154.725ZM425.165 155.74V161.475H427.165V155.74H425.165ZM426.769 160.678C423.601 158.275 420.031 157.065 416.09 157.065V159.065C419.589 159.065 422.736 160.129 425.561 162.272L426.769 160.678ZM416.09 157.065C412.154 157.065 408.351 158.271 404.697 160.635L405.783 162.314C409.156 160.132 412.586 159.065 416.09 159.065V157.065ZM404.685 160.643C401.136 163.009 398.242 166.177 396 170.126L397.74 171.113C399.838 167.416 402.524 164.487 405.795 162.307L404.685 160.643ZM395.99 170.144C393.845 174.114 392.77 178.359 392.77 182.865H394.77C394.77 178.691 395.762 174.773 397.75 171.095L395.99 170.144ZM392.77 182.865V223.63H394.77V182.865H392.77ZM393.77 222.63H388.81V224.63H393.77V222.63ZM389.81 223.63V153.88H387.81V223.63H389.81ZM445.589 107.38V106.38H444.589V107.38H445.589ZM450.704 107.38H451.704V106.38H450.704V107.38ZM450.704 219.135H449.704V220.135H450.704V219.135ZM486.664 219.135H487.664V218.135H486.664V219.135ZM486.664 223.63V224.63H487.664V223.63H486.664ZM445.589 223.63H444.589V224.63H445.589V223.63ZM445.589 108.38H450.704V106.38H445.589V108.38ZM449.704 107.38V219.135H451.704V107.38H449.704ZM450.704 220.135H486.664V218.135H450.704V220.135ZM485.664 219.135V223.63H487.664V219.135H485.664ZM486.664 222.63H445.589V224.63H486.664V222.63ZM446.589 223.63V107.38H444.589V223.63H446.589ZM553.66 216.965L553.162 216.098L553.66 216.965ZM565.75 205.495H566.75V202.163L564.915 204.944L565.75 205.495ZM565.75 213.4L566.492 214.07L566.75 213.784V213.4H565.75ZM553.195 222.7L553.573 223.625L553.582 223.622L553.591 223.618L553.195 222.7ZM519.56 220.375L519.038 221.228L519.045 221.232L519.56 220.375ZM506.075 206.735L505.21 207.238L505.217 207.249L506.075 206.735ZM506.075 170L506.931 170.517L506.935 170.51L506.075 170ZM519.56 156.98L519.088 156.098L519.081 156.102L519.56 156.98ZM566.215 165.04L566.917 165.752L567.593 165.084L566.962 164.375L566.215 165.04ZM517.545 213.09L516.842 212.378L516.051 213.16L516.912 213.864L517.545 213.09ZM527.465 219.29L527.078 220.212L527.091 220.217L527.104 220.222L527.465 219.29ZM514.6 210.145L513.868 210.827L514.572 211.582L515.305 210.854L514.6 210.145ZM560.015 165.04L560.72 165.749L561.479 164.995L560.675 164.289L560.015 165.04ZM550.095 158.685L549.708 159.607L549.721 159.612L549.734 159.617L550.095 158.685ZM521.73 160.855L522.214 161.73L522.22 161.726L521.73 160.855ZM510.26 172.015L509.397 171.509L510.26 172.015ZM538.315 222.15C543.871 222.15 549.156 220.705 554.158 217.832L553.162 216.098C548.45 218.805 543.506 220.15 538.315 220.15V222.15ZM554.158 217.832C559.155 214.961 563.299 211.027 566.585 206.045L564.915 204.944C561.794 209.676 557.878 213.389 553.162 216.098L554.158 217.832ZM564.75 205.495V213.4H566.75V205.495H564.75ZM565.007 212.73C561.266 216.876 557.195 219.883 552.798 221.782L553.591 223.618C558.288 221.59 562.587 218.397 566.492 214.07L565.007 212.73ZM552.816 221.774C548.409 223.577 543.374 224.49 537.695 224.49V226.49C543.589 226.49 548.887 225.543 553.573 223.625L552.816 221.774ZM537.695 224.49C531.476 224.49 525.608 222.838 520.074 219.517L519.045 221.232C524.878 224.732 531.1 226.49 537.695 226.49V224.49ZM520.081 219.522C514.641 216.197 510.26 211.767 506.932 206.22L505.217 207.249C508.709 213.069 513.319 217.733 519.038 221.228L520.081 219.522ZM506.939 206.232C503.719 200.697 502.115 194.825 502.115 188.6H500.115C500.115 195.188 501.817 201.406 505.211 207.238L506.939 206.232ZM502.115 188.6C502.115 181.843 503.726 175.825 506.931 170.517L505.219 169.483C501.81 175.128 500.115 181.51 500.115 188.6H502.115ZM506.935 170.51C510.15 165.084 514.514 160.871 520.039 157.858L519.081 156.102C513.239 159.288 508.613 163.756 505.215 169.49L506.935 170.51ZM520.032 157.861C525.663 154.845 531.906 153.33 538.78 153.33V151.33C531.6 151.33 525.03 152.915 519.088 156.098L520.032 157.861ZM538.78 153.33C549.224 153.33 558.102 157.431 565.468 165.705L566.962 164.375C559.241 155.702 549.829 151.33 538.78 151.33V153.33ZM565.512 164.328L516.842 212.378L518.247 213.802L566.917 165.752L565.512 164.328ZM516.912 213.864C520.377 216.699 523.766 218.823 527.078 220.212L527.852 218.368C524.757 217.07 521.533 215.06 518.178 212.316L516.912 213.864ZM527.104 220.222C530.44 221.514 534.182 222.15 538.315 222.15V220.15C534.387 220.15 530.896 219.546 527.826 218.357L527.104 220.222ZM505.075 188.135C505.075 196.957 508.007 204.539 513.868 210.827L515.331 209.463C509.826 203.557 507.075 196.467 507.075 188.135H505.075ZM515.305 210.854L560.72 165.749L559.31 164.33L513.895 209.435L515.305 210.854ZM560.675 164.289C557.203 161.238 553.798 159.046 550.456 157.752L549.734 159.617C552.799 160.804 556.006 162.848 559.355 165.791L560.675 164.289ZM550.482 157.763C547.127 156.356 543.165 155.67 538.625 155.67V157.67C542.971 157.67 546.656 158.327 549.708 159.607L550.482 157.763ZM538.625 155.67C532.169 155.67 526.365 157.1 521.24 159.983L522.22 161.726C527.015 159.029 532.474 157.67 538.625 157.67V155.67ZM521.246 159.98C516.233 162.753 512.279 166.6 509.397 171.509L511.122 172.521C513.821 167.924 517.513 164.33 522.214 161.73L521.246 159.98ZM509.397 171.509C506.51 176.429 505.075 181.98 505.075 188.135H507.075C507.075 182.303 508.43 177.108 511.122 172.521L509.397 171.509ZM644.53 153.88L645.432 154.311L646.115 152.88H644.53V153.88ZM610.275 225.645L609.373 226.077L610.277 227.962L611.177 226.076L610.275 225.645ZM575.865 153.88V152.88H574.276L574.963 154.312L575.865 153.88ZM581.29 153.88L582.192 153.448L581.919 152.88H581.29V153.88ZM610.275 214.33L609.373 214.762L610.277 216.648L611.177 214.76L610.275 214.33ZM639.105 153.88V152.88H638.474L638.202 153.449L639.105 153.88ZM643.627 153.449L609.372 225.214L611.177 226.076L645.432 154.311L643.627 153.449ZM611.177 225.213L576.767 153.448L574.963 154.312L609.373 226.077L611.177 225.213ZM575.865 154.88H581.29V152.88H575.865V154.88ZM580.388 154.312L609.373 214.762L611.177 213.898L582.192 153.448L580.388 154.312ZM611.177 214.76L640.007 154.31L638.202 153.449L609.372 213.899L611.177 214.76ZM639.105 154.88H644.53V152.88H639.105V154.88ZM661.909 136.365L661.202 137.072L661.219 137.089L661.237 137.105L661.909 136.365ZM661.909 128.77L661.237 128.03L661.219 128.046L661.202 128.063L661.909 128.77ZM669.504 128.77L668.797 129.477L668.814 129.494L668.832 129.51L669.504 128.77ZM669.504 136.365L668.832 135.625L668.814 135.641L668.797 135.658L669.504 136.365ZM663.304 153.88V152.88H662.304V153.88H663.304ZM668.264 153.88H669.264V152.88H668.264V153.88ZM668.264 223.63V224.63H669.264V223.63H668.264ZM663.304 223.63H662.304V224.63H663.304V223.63ZM665.784 136.915C664.603 136.915 663.547 136.502 662.582 135.625L661.237 137.105C662.545 138.294 664.072 138.915 665.784 138.915V136.915ZM662.616 135.658C661.783 134.824 661.359 133.793 661.359 132.49H659.359C659.359 134.287 659.969 135.839 661.202 137.072L662.616 135.658ZM661.359 132.49C661.359 131.311 661.768 130.325 662.616 129.477L661.202 128.063C659.983 129.281 659.359 130.775 659.359 132.49H661.359ZM662.582 129.51C663.547 128.632 664.603 128.22 665.784 128.22V126.22C664.072 126.22 662.545 126.841 661.237 128.03L662.582 129.51ZM665.784 128.22C666.963 128.22 667.949 128.629 668.797 129.477L670.211 128.063C668.993 126.844 667.499 126.22 665.784 126.22V128.22ZM668.832 129.51C669.774 130.367 670.209 131.344 670.209 132.49H672.209C672.209 130.742 671.507 129.24 670.177 128.03L668.832 129.51ZM670.209 132.49C670.209 133.761 669.758 134.783 668.832 135.625L670.177 137.105C671.524 135.88 672.209 134.319 672.209 132.49H670.209ZM668.797 135.658C667.949 136.506 666.963 136.915 665.784 136.915V138.915C667.499 138.915 668.993 138.291 670.211 137.072L668.797 135.658ZM663.304 154.88H668.264V152.88H663.304V154.88ZM667.264 153.88V223.63H669.264V153.88H667.264ZM668.264 222.63H663.304V224.63H668.264V222.63ZM664.304 223.63V153.88H662.304V223.63H664.304Z" fill="white"/>
<path d="M165.34 40.235L79.635 90.56L165.34 141.19V151.255L69.875 94.83V85.985L165.34 30.17V40.235Z" fill="#73C5EB"/>
<path d="M165.34 40.235L166.859 42.822L168.34 41.9524V40.235H165.34ZM79.635 90.56L78.116 87.973L73.7235 90.5522L78.1091 93.143L79.635 90.56ZM165.34 141.19H168.34V139.478L166.866 138.607L165.34 141.19ZM165.34 151.255L163.814 153.838L168.34 156.513V151.255H165.34ZM69.875 94.83H66.875V96.5417L68.3485 97.4126L69.875 94.83ZM69.875 85.985L68.3608 83.3952L66.875 84.2639V85.985H69.875ZM165.34 30.17H168.34V24.9409L163.826 27.5802L165.34 30.17ZM163.821 37.648L78.116 87.973L81.154 93.147L166.859 42.822L163.821 37.648ZM78.1091 93.143L163.814 143.773L166.866 138.607L81.1609 87.977L78.1091 93.143ZM162.34 141.19V151.255H168.34V141.19H162.34ZM166.866 148.672L71.4015 92.2474L68.3485 97.4126L163.814 153.838L166.866 148.672ZM72.875 94.83V85.985H66.875V94.83H72.875ZM71.3892 88.5748L166.854 32.7598L163.826 27.5802L68.3608 83.3952L71.3892 88.5748ZM162.34 30.17V40.235H168.34V30.17H162.34Z" fill="#73C5EB"/>
<path d="M179.508 68.8182V75.8072L104.075 120.392V112.439L171.796 72.4332L104.075 32.6682V24.7152L179.508 68.8182Z" fill="#648FA3"/>
<path d="M179.508 68.8182H185.508V65.3759L182.536 63.6385L179.508 68.8182ZM179.508 75.8072L182.561 80.9724L185.508 79.2305V75.8072H179.508ZM104.075 120.392H98.075V130.908L107.128 125.557L104.075 120.392ZM104.075 112.439L101.023 107.273L98.075 109.015V112.439H104.075ZM171.796 72.4332L174.848 77.5991L183.619 72.4175L174.834 67.2592L171.796 72.4332ZM104.075 32.6682H98.075V36.1029L101.037 37.8421L104.075 32.6682ZM104.075 24.7152L107.103 19.5355L98.075 14.2569V24.7152H104.075ZM173.508 68.8182V75.8072H185.508V68.8182H173.508ZM176.455 70.6419L101.022 115.227L107.128 125.557L182.561 80.9724L176.455 70.6419ZM110.075 120.392V112.439H98.075V120.392H110.075ZM107.127 117.605L174.848 77.5991L168.744 67.2672L101.023 107.273L107.127 117.605ZM174.834 67.2592L107.113 27.4942L101.037 37.8421L168.758 77.6071L174.834 67.2592ZM110.075 32.6682V24.7152H98.075V32.6682H110.075ZM101.047 29.8948L176.48 73.9978L182.536 63.6385L107.103 19.5355L101.047 29.8948Z" fill="#648FA3"/>
<path d="M204.94 252.067C208.126 252.067 210.484 252.819 212.016 254.323C213.561 255.827 214.333 258.145 214.333 261.275V276H211.852L211.831 261.214C211.831 258.712 211.298 256.907 210.231 255.8C209.165 254.692 207.415 254.139 204.981 254.139H201.434C200.873 254.863 200.415 255.868 200.06 257.153C199.718 258.438 199.547 259.792 199.547 261.214V269.909C199.547 272.001 199.082 273.56 198.152 274.585C197.223 275.61 195.849 276.123 194.03 276.123C193.688 276.123 193.354 276.109 193.025 276.082C192.711 276.055 192.383 276.014 192.041 275.959V273.888C192.301 273.915 192.554 273.942 192.8 273.97C193.046 273.983 193.278 273.99 193.497 273.99C194.81 273.99 195.739 273.655 196.286 272.985C196.833 272.315 197.106 271.256 197.106 269.807V261.357C197.106 259.963 197.291 258.603 197.66 257.276C198.043 255.937 198.549 254.891 199.178 254.139H194.297V252.067H204.94ZM222.946 276V254.139H219.809V252.067H225.448V276H222.946ZM230.637 276V273.908H244.377L246.879 273.785L249.832 274.052V276H230.637ZM244.377 275.446V261.214C244.377 258.698 243.83 256.894 242.736 255.8C241.656 254.692 239.872 254.139 237.384 254.139H231.929V252.067H237.466C240.624 252.067 242.982 252.819 244.541 254.323C246.1 255.827 246.879 258.124 246.879 261.214V275.446H244.377ZM259.368 276.308C258.37 276.308 257.324 276.212 256.23 276.021C255.15 275.829 254.002 275.549 252.785 275.18L253.216 273.252C255.526 273.922 257.584 274.243 259.389 274.216C261.727 274.161 263.538 273.525 264.823 272.309C266.108 271.092 266.751 269.369 266.751 267.141V254.139H253.4V252.067H269.253V266.484C269.253 268.658 268.85 270.477 268.043 271.939C267.236 273.402 266.095 274.503 264.618 275.241C263.142 275.966 261.392 276.321 259.368 276.308ZM287.423 276V258.855C287.423 257.42 286.999 256.278 286.151 255.431C285.304 254.569 284.169 254.139 282.747 254.139H274.257V252.067H282.686C284.941 252.067 286.712 252.689 287.997 253.934C289.282 255.164 289.925 256.887 289.925 259.102V276H287.423ZM298.538 276V254.139H295.4V252.067H301.04V276H298.538ZM308.464 276L310.433 259.881C310.583 258.732 310.925 257.666 311.458 256.682C311.991 255.684 312.627 254.932 313.365 254.426C313.447 254.371 313.536 254.323 313.632 254.282C313.741 254.228 313.837 254.18 313.919 254.139L313.878 254.057C313.181 254.166 312.367 254.344 311.438 254.59C310.508 254.822 309.496 255.116 308.402 255.472L307.767 253.503C308.819 253.134 309.947 252.819 311.15 252.56C312.354 252.286 313.557 252.074 314.76 251.924C315.977 251.773 317.098 251.698 318.123 251.698C321.131 251.698 323.441 252.519 325.055 254.159C326.668 255.8 327.481 258.206 327.495 261.378V276H317.938V273.929H324.993V261.152C324.993 258.746 324.426 256.935 323.291 255.718C322.17 254.501 320.536 253.893 318.39 253.893C316.954 253.893 315.737 254.426 314.739 255.492C313.741 256.545 313.133 257.96 312.914 259.737L310.925 276H308.464ZM353.991 252.067C357.177 252.067 359.535 252.819 361.066 254.323C362.611 255.827 363.384 258.145 363.384 261.275V276H360.902L360.882 261.214C360.882 258.712 360.349 256.907 359.282 255.8C358.216 254.692 356.466 254.139 354.032 254.139H350.484C349.924 254.863 349.466 255.868 349.11 257.153C348.769 258.438 348.598 259.792 348.598 261.214V269.909C348.598 272.001 348.133 273.56 347.203 274.585C346.273 275.61 344.899 276.123 343.081 276.123C342.739 276.123 342.404 276.109 342.076 276.082C341.762 276.055 341.434 276.014 341.092 275.959V273.888C341.352 273.915 341.604 273.942 341.851 273.97C342.097 273.983 342.329 273.99 342.548 273.99C343.86 273.99 344.79 273.655 345.337 272.985C345.884 272.315 346.157 271.256 346.157 269.807V261.357C346.157 259.963 346.342 258.603 346.711 257.276C347.094 255.937 347.6 254.891 348.229 254.139H343.348V252.067H353.991ZM371.997 276V254.139H368.859V252.067H374.499V276H371.997ZM386.845 276.308C385.847 276.308 384.801 276.212 383.707 276.021C382.627 275.829 381.479 275.549 380.262 275.18L380.692 273.252C383.003 273.922 385.061 274.243 386.865 274.216C389.203 274.161 391.015 273.525 392.3 272.309C393.585 271.092 394.228 269.369 394.228 267.141V254.139H380.877V252.067H396.729V266.484C396.729 268.658 396.326 270.477 395.52 271.939C394.713 273.402 393.571 274.503 392.095 275.241C390.618 275.966 388.868 276.321 386.845 276.308ZM414.899 276V258.855C414.899 257.42 414.476 256.278 413.628 255.431C412.78 254.569 411.646 254.139 410.224 254.139H401.733V252.067H410.162C412.418 252.067 414.188 252.689 415.474 253.934C416.759 255.164 417.401 256.887 417.401 259.102V276H414.899ZM430.198 276.451C429.022 276.451 427.758 276.321 426.404 276.062C425.064 275.802 423.656 275.392 422.18 274.831L422.877 272.903C424.203 273.423 425.454 273.812 426.63 274.072C427.819 274.332 428.92 274.462 429.932 274.462C432.283 274.462 434.184 273.806 435.633 272.493C437.096 271.181 437.827 269.28 437.827 266.792V252.067H440.309V266.73C440.309 268.836 439.878 270.613 439.017 272.062C438.155 273.512 436.966 274.605 435.448 275.344C433.931 276.082 432.181 276.451 430.198 276.451ZM423.595 252.067H426.097L430.137 270.135C430.383 271.27 430.643 272.206 430.916 272.944C431.189 273.683 431.545 274.38 431.982 275.036L429.911 274.975C429.405 274.277 428.968 273.573 428.599 272.862C428.243 272.138 427.942 271.229 427.696 270.135L423.595 252.067ZM447.712 276L449.681 259.881C449.831 258.732 450.173 257.666 450.706 256.682C451.239 255.684 451.875 254.932 452.613 254.426C452.695 254.371 452.784 254.323 452.88 254.282C452.989 254.228 453.085 254.18 453.167 254.139L453.126 254.057C452.429 254.166 451.615 254.344 450.686 254.59C449.756 254.822 448.744 255.116 447.65 255.472L447.015 253.503C448.067 253.134 449.195 252.819 450.398 252.56C451.602 252.286 452.805 252.074 454.008 251.924C455.225 251.773 456.346 251.698 457.371 251.698C460.379 251.698 462.689 252.519 464.303 254.159C465.916 255.8 466.729 258.206 466.743 261.378V276H457.187V273.929H464.241V261.152C464.241 258.746 463.674 256.935 462.539 255.718C461.418 254.501 459.784 253.893 457.638 253.893C456.202 253.893 454.985 254.426 453.987 255.492C452.989 256.545 452.381 257.96 452.162 259.737L450.173 276H447.712ZM475.233 276V254.139H472.096V252.067H477.735V276H475.233ZM504.765 252.067C507.95 252.067 510.309 252.819 511.84 254.323C513.385 255.827 514.157 258.145 514.157 261.275V276H511.676L511.655 261.214C511.655 258.712 511.122 256.907 510.056 255.8C508.989 254.692 507.239 254.139 504.806 254.139H501.258C500.697 254.863 500.239 255.868 499.884 257.153C499.542 258.438 499.371 259.792 499.371 261.214V269.909C499.371 272.001 498.906 273.56 497.977 274.585C497.047 275.61 495.673 276.123 493.854 276.123C493.513 276.123 493.178 276.109 492.85 276.082C492.535 276.055 492.207 276.014 491.865 275.959V273.888C492.125 273.915 492.378 273.942 492.624 273.97C492.87 273.983 493.103 273.99 493.321 273.99C494.634 273.99 495.563 273.655 496.11 272.985C496.657 272.315 496.931 271.256 496.931 269.807V261.357C496.931 259.963 497.115 258.603 497.484 257.276C497.867 255.937 498.373 254.891 499.002 254.139H494.121V252.067H504.765ZM522.771 276V254.139H519.633V252.067H525.272V276H522.771ZM534.993 265.254V254.139H530.297V252.067H537.495V265.254H534.993ZM543.688 276V273.908H557.552L542.52 252.067H545.37L553.102 263.449L560.792 274.564V276H543.688ZM553.45 265.541L551.912 263.511L558.659 252.067H561.489L553.45 265.541ZM574.532 276V273.929C576.706 273.847 578.456 273.19 579.782 271.96C581.108 270.729 581.771 269.096 581.771 267.059V254.139H566.637V252.067H584.273V267.018C584.273 268.85 583.877 270.429 583.084 271.755C582.305 273.081 581.184 274.106 579.721 274.831C578.258 275.542 576.528 275.932 574.532 276ZM567.149 284.531V266.71C567.149 265.466 567.231 264.488 567.396 263.777C567.56 263.066 567.765 262.39 568.011 261.747H570.144C569.938 262.403 569.795 263.107 569.713 263.859C569.631 264.611 569.59 265.562 569.59 266.71V284.531H567.149ZM593.974 265.254V254.139H589.277V252.067H596.476V265.254H593.974ZM601.869 254.139V244.5H604.351V252.067H618.296V254.139H601.869ZM619.362 253.605L610.134 276H607.427L617.414 252.067H619.362V253.605ZM632.385 276.349C631.318 276.349 630.163 276.239 628.919 276.021C627.688 275.802 626.451 275.487 625.207 275.077L625.699 273.149C626.916 273.519 628.099 273.792 629.247 273.97C630.409 274.134 631.455 274.216 632.385 274.216C634.764 274.188 636.616 273.566 637.942 272.35C639.282 271.133 639.952 269.396 639.952 267.141V254.139H629.165C628.618 254.959 628.174 256.025 627.832 257.338C627.49 258.637 627.319 259.949 627.319 261.275V263.388C627.784 263.606 628.317 263.757 628.919 263.839C629.521 263.907 630.396 263.941 631.544 263.941V266.156C630.423 266.156 629.479 266.122 628.714 266.054C627.962 265.985 627.285 265.855 626.684 265.664C626.096 265.473 625.487 265.213 624.858 264.885L624.817 261.727C624.817 260.318 625.009 258.924 625.392 257.543C625.788 256.162 626.308 255.027 626.95 254.139H624.243V252.067H642.434V266.546C642.434 268.72 642.01 270.531 641.162 271.98C640.328 273.43 639.159 274.523 637.655 275.262C636.165 275.986 634.408 276.349 632.385 276.349ZM667.289 276L649.55 252.067H652.359L670.078 276H667.289ZM650.35 276V266.936C650.35 264.816 650.76 263.08 651.58 261.727C652.4 260.359 653.631 259.375 655.271 258.773L656.399 260.106C653.993 261.063 652.79 263.114 652.79 266.259V276H650.35ZM670.099 252.067L661.67 266.156L659.968 264.29L667.269 252.067H670.099Z" fill="white"/>
</g>
<defs>
<clipPath id="clip0_1_2">
<rect width="775" height="298" fill="white"/>
</clipPath>
</defs>
</svg>
