<svg width="775" height="298" viewBox="0 0 775 298" fill="none" xmlns="http://www.w3.org/2000/svg">
<g clip-path="url(#clip0_1_2)">
<path d="M191.461 149.38H196.421C214.918 149.38 229.178 154.443 239.201 164.57C249.328 174.593 254.391 188.905 254.391 207.505C254.391 218.148 251.808 227.913 246.641 236.8C241.475 245.687 234.448 252.713 225.561 257.88C216.778 263.047 207.065 265.63 196.421 265.63H191.461V149.38ZM197.661 260.825C207.168 260.825 215.848 258.5 223.701 253.85C231.555 249.097 237.755 242.638 242.301 234.475C246.951 226.312 249.276 217.322 249.276 207.505C249.276 190.352 244.781 177.177 235.791 167.98C226.905 158.68 214.195 154.03 197.661 154.03H196.421V260.825H197.661ZM337.315 195.88L303.06 267.645L268.65 195.88H274.075L303.06 256.33L331.89 195.88H337.315ZM358.569 179.915C357.123 179.915 355.831 179.398 354.694 178.365C353.661 177.332 353.144 176.04 353.144 174.49C353.144 173.043 353.661 171.803 354.694 170.77C355.831 169.737 357.123 169.22 358.569 169.22C360.016 169.22 361.256 169.737 362.289 170.77C363.426 171.803 363.994 173.043 363.994 174.49C363.994 176.04 363.426 177.332 362.289 178.365C361.256 179.398 360.016 179.915 358.569 179.915ZM356.089 195.88H361.049V265.63H356.089V195.88ZM388.81 195.88H393.77V212C395.837 206.937 398.833 202.958 402.76 200.065C406.79 197.172 411.337 195.725 416.4 195.725C419.603 195.725 422.858 196.397 426.165 197.74V203.475C423.168 201.202 419.81 200.065 416.09 200.065C412.37 200.065 408.753 201.202 405.24 203.475C401.83 205.748 399.04 208.797 396.87 212.62C394.803 216.443 393.77 220.525 393.77 224.865V265.63H388.81V195.88ZM445.589 149.38H450.704V261.135H486.664V265.63H445.589V149.38ZM538.315 263.15C543.688 263.15 548.803 261.755 553.66 258.965C558.517 256.175 562.547 252.352 565.75 247.495V255.4C561.927 259.637 557.742 262.737 553.195 264.7C548.648 266.56 543.482 267.49 537.695 267.49C531.288 267.49 525.243 265.785 519.56 262.375C513.98 258.965 509.485 254.418 506.075 248.735C502.768 243.052 501.115 237.007 501.115 230.6C501.115 223.677 502.768 217.477 506.075 212C509.382 206.42 513.877 202.08 519.56 198.98C525.347 195.88 531.753 194.33 538.78 194.33C549.527 194.33 558.672 198.567 566.215 207.04L517.545 255.09C520.955 257.88 524.262 259.947 527.465 261.29C530.668 262.53 534.285 263.15 538.315 263.15ZM506.075 230.135C506.075 238.712 508.917 246.048 514.6 252.145L560.015 207.04C556.605 204.043 553.298 201.925 550.095 200.685C546.892 199.342 543.068 198.67 538.625 198.67C532.322 198.67 526.69 200.065 521.73 202.855C516.873 205.542 513.05 209.262 510.26 214.015C507.47 218.768 506.075 224.142 506.075 230.135ZM644.53 195.88L610.275 267.645L575.865 195.88H581.29L610.275 256.33L639.105 195.88H644.53ZM665.784 179.915C664.338 179.915 663.046 179.398 661.909 178.365C660.876 177.332 660.359 176.04 660.359 174.49C660.359 173.043 660.876 171.803 661.909 170.77C663.046 169.737 664.338 169.22 665.784 169.22C667.231 169.22 668.471 169.737 669.504 170.77C670.641 171.803 671.209 173.043 671.209 174.49C671.209 176.04 670.641 177.332 669.504 178.365C668.471 179.398 667.231 179.915 665.784 179.915ZM663.304 195.88H668.264V265.63H663.304V195.88Z" fill="white"/>
<path d="M191.461 149.38V148.38H190.461V149.38H191.461ZM239.201 164.57L238.49 165.273L238.498 165.281L239.201 164.57ZM246.641 236.8L247.506 237.303L247.506 237.303L246.641 236.8ZM225.561 257.88L225.059 257.015L225.054 257.018L225.561 257.88ZM191.461 265.63H190.461V266.63H191.461V265.63ZM223.701 253.85L224.211 254.71L224.219 254.705L223.701 253.85ZM242.301 234.475L241.432 233.98L241.428 233.988L242.301 234.475ZM235.791 167.98L235.068 168.671L235.076 168.679L235.791 167.98ZM196.421 154.03V153.03H195.421V154.03H196.421ZM196.421 260.825H195.421V261.825H196.421V260.825ZM191.461 150.38H196.421V148.38H191.461V150.38ZM196.421 150.38C214.734 150.38 228.706 155.388 238.49 165.273L239.912 163.866C229.649 153.498 215.102 148.38 196.421 148.38V150.38ZM238.498 165.281C248.382 175.064 253.391 189.087 253.391 207.505H255.391C255.391 188.723 250.274 174.123 239.905 163.859L238.498 165.281ZM253.391 207.505C253.391 217.978 250.851 227.569 245.777 236.297L247.506 237.303C252.764 228.258 255.391 218.318 255.391 207.505H253.391ZM245.777 236.297C240.697 245.034 233.795 251.936 225.059 257.015L226.064 258.744C235.1 253.491 242.252 246.339 247.506 237.303L245.777 236.297ZM225.054 257.018C216.431 262.09 206.895 264.63 196.421 264.63V266.63C207.235 266.63 217.124 264.003 226.068 258.742L225.054 257.018ZM196.421 264.63H191.461V266.63H196.421V264.63ZM192.461 265.63V149.38H190.461V265.63H192.461ZM197.661 261.825C207.339 261.825 216.197 259.456 224.211 254.71L223.192 252.989C215.499 257.544 206.996 259.825 197.661 259.825V261.825ZM224.219 254.705C232.224 249.86 238.545 243.274 243.175 234.961L241.428 233.988C236.964 242.003 230.885 248.333 223.183 252.994L224.219 254.705ZM243.17 234.97C247.91 226.649 250.276 217.487 250.276 207.505H248.276C248.276 217.156 245.992 225.974 241.432 233.98L243.17 234.97ZM250.276 207.505C250.276 190.18 245.733 176.72 236.506 167.281L235.076 168.679C243.829 177.633 248.276 190.523 248.276 207.505H250.276ZM236.514 167.289C227.389 157.739 214.385 153.03 197.661 153.03V155.03C214.004 155.03 226.42 159.621 235.068 168.671L236.514 167.289ZM197.661 153.03H196.421V155.03H197.661V153.03ZM195.421 154.03V260.825H197.421V154.03H195.421ZM196.421 261.825H197.661V259.825H196.421V261.825ZM337.315 195.88L338.217 196.311L338.9 194.88H337.315V195.88ZM303.06 267.645L302.158 268.077L303.062 269.962L303.962 268.076L303.06 267.645ZM268.65 195.88V194.88H267.061L267.748 196.312L268.65 195.88ZM274.075 195.88L274.977 195.448L274.705 194.88H274.075V195.88ZM303.06 256.33L302.158 256.762L303.062 258.648L303.963 256.76L303.06 256.33ZM331.89 195.88V194.88H331.259L330.987 195.449L331.89 195.88ZM336.413 195.449L302.158 267.214L303.962 268.076L338.217 196.311L336.413 195.449ZM303.962 267.213L269.552 195.448L267.748 196.312L302.158 268.077L303.962 267.213ZM268.65 196.88H274.075V194.88H268.65V196.88ZM273.173 196.312L302.158 256.762L303.962 255.898L274.977 195.448L273.173 196.312ZM303.963 256.76L332.793 196.31L330.987 195.449L302.157 255.899L303.963 256.76ZM331.89 196.88H337.315V194.88H331.89V196.88ZM354.694 178.365L353.987 179.072L354.004 179.089L354.022 179.105L354.694 178.365ZM354.694 170.77L354.022 170.03L354.004 170.046L353.987 170.063L354.694 170.77ZM362.289 170.77L361.582 171.477L361.599 171.494L361.617 171.51L362.289 170.77ZM362.289 178.365L361.617 177.625L361.599 177.641L361.582 177.658L362.289 178.365ZM356.089 195.88V194.88H355.089V195.88H356.089ZM361.049 195.88H362.049V194.88H361.049V195.88ZM361.049 265.63V266.63H362.049V265.63H361.049ZM356.089 265.63H355.089V266.63H356.089V265.63ZM358.569 178.915C357.388 178.915 356.332 178.502 355.367 177.625L354.022 179.105C355.33 180.294 356.858 180.915 358.569 180.915V178.915ZM355.401 177.658C354.568 176.824 354.144 175.793 354.144 174.49H352.144C352.144 176.287 352.754 177.839 353.987 179.072L355.401 177.658ZM354.144 174.49C354.144 173.311 354.554 172.325 355.401 171.477L353.987 170.063C352.769 171.281 352.144 172.775 352.144 174.49H354.144ZM355.367 171.51C356.332 170.633 357.388 170.22 358.569 170.22V168.22C356.858 168.22 355.33 168.841 354.022 170.03L355.367 171.51ZM358.569 170.22C359.748 170.22 360.734 170.629 361.582 171.477L362.996 170.063C361.778 168.844 360.284 168.22 358.569 168.22V170.22ZM361.617 171.51C362.559 172.367 362.994 173.344 362.994 174.49H364.994C364.994 172.742 364.293 171.24 362.962 170.03L361.617 171.51ZM362.994 174.49C362.994 175.761 362.543 176.783 361.617 177.625L362.962 179.105C364.309 177.88 364.994 176.319 364.994 174.49H362.994ZM361.582 177.658C360.734 178.506 359.748 178.915 358.569 178.915V180.915C360.284 180.915 361.778 180.291 362.996 179.072L361.582 177.658ZM356.089 196.88H361.049V194.88H356.089V196.88ZM360.049 195.88V265.63H362.049V195.88H360.049ZM361.049 264.63H356.089V266.63H361.049V264.63ZM357.089 265.63V195.88H355.089V265.63H357.089ZM388.81 195.88V194.88H387.81V195.88H388.81ZM393.77 195.88H394.77V194.88H393.77V195.88ZM393.77 212H392.77L394.696 212.378L393.77 212ZM402.76 200.065L402.177 199.252L402.167 199.26L402.76 200.065ZM426.165 197.74H427.165V197.067L426.541 196.813L426.165 197.74ZM426.165 203.475L425.561 204.272L427.165 205.489V203.475H426.165ZM405.24 203.475L404.697 202.635L404.685 202.643L405.24 203.475ZM396.87 212.62L396 212.126L395.995 212.135L395.99 212.144L396.87 212.62ZM393.77 265.63V266.63H394.77V265.63H393.77ZM388.81 265.63H387.81V266.63H388.81V265.63ZM388.81 196.88H393.77V194.88H388.81V196.88ZM392.77 195.88V212H394.77V195.88H392.77ZM394.696 212.378C396.702 207.464 399.592 203.641 403.353 200.87L402.167 199.26C398.075 202.275 394.972 206.41 392.844 211.622L394.696 212.378ZM403.343 200.877C407.2 198.109 411.541 196.725 416.4 196.725V194.725C411.132 194.725 406.381 196.235 402.177 199.253L403.343 200.877ZM416.4 196.725C419.46 196.725 422.588 197.366 425.789 198.666L426.541 196.813C423.129 195.427 419.746 194.725 416.4 194.725V196.725ZM425.165 197.74V203.475H427.165V197.74H425.165ZM426.769 202.678C423.601 200.275 420.031 199.065 416.09 199.065V201.065C419.589 201.065 422.736 202.129 425.561 204.272L426.769 202.678ZM416.09 199.065C412.154 199.065 408.351 200.271 404.697 202.635L405.783 204.314C409.156 202.132 412.586 201.065 416.09 201.065V199.065ZM404.685 202.643C401.136 205.009 398.242 208.177 396 212.126L397.74 213.113C399.838 209.416 402.524 206.487 405.795 204.307L404.685 202.643ZM395.99 212.144C393.845 216.114 392.77 220.359 392.77 224.865H394.77C394.77 220.691 395.762 216.773 397.75 213.095L395.99 212.144ZM392.77 224.865V265.63H394.77V224.865H392.77ZM393.77 264.63H388.81V266.63H393.77V264.63ZM389.81 265.63V195.88H387.81V265.63H389.81ZM445.589 149.38V148.38H444.589V149.38H445.589ZM450.704 149.38H451.704V148.38H450.704V149.38ZM450.704 261.135H449.704V262.135H450.704V261.135ZM486.664 261.135H487.664V260.135H486.664V261.135ZM486.664 265.63V266.63H487.664V265.63H486.664ZM445.589 265.63H444.589V266.63H445.589V265.63ZM445.589 150.38H450.704V148.38H445.589V150.38ZM449.704 149.38V261.135H451.704V149.38H449.704ZM450.704 262.135H486.664V260.135H450.704V262.135ZM485.664 261.135V265.63H487.664V261.135H485.664ZM486.664 264.63H445.589V266.63H486.664V264.63ZM446.589 265.63V149.38H444.589V265.63H446.589ZM553.66 258.965L553.162 258.098L553.162 258.098L553.66 258.965ZM565.75 247.495H566.75V244.163L564.915 246.944L565.75 247.495ZM565.75 255.4L566.492 256.07L566.75 255.784V255.4H565.75ZM553.195 264.7L553.573 265.625L553.582 265.622L553.591 265.618L553.195 264.7ZM519.56 262.375L519.038 263.228L519.045 263.232L519.56 262.375ZM506.075 248.735L505.21 249.238L505.217 249.249L506.075 248.735ZM506.075 212L506.931 212.517L506.935 212.51L506.075 212ZM519.56 198.98L519.088 198.098L519.081 198.102L519.56 198.98ZM566.215 207.04L566.917 207.752L567.593 207.084L566.962 206.375L566.215 207.04ZM517.545 255.09L516.842 254.378L516.051 255.16L516.912 255.864L517.545 255.09ZM527.465 261.29L527.078 262.212L527.091 262.217L527.104 262.222L527.465 261.29ZM514.6 252.145L513.868 252.827L514.572 253.582L515.305 252.854L514.6 252.145ZM560.015 207.04L560.72 207.749L561.479 206.995L560.675 206.289L560.015 207.04ZM550.095 200.685L549.708 201.607L549.721 201.612L549.734 201.617L550.095 200.685ZM521.73 202.855L522.214 203.73L522.22 203.726L521.73 202.855ZM510.26 214.015L509.397 213.509L510.26 214.015ZM538.315 264.15C543.871 264.15 549.156 262.705 554.158 259.832L553.162 258.098C548.45 260.805 543.506 262.15 538.315 262.15V264.15ZM554.158 259.832C559.155 256.961 563.299 253.027 566.585 248.045L564.915 246.944C561.794 251.676 557.878 255.389 553.162 258.098L554.158 259.832ZM564.75 247.495V255.4H566.75V247.495H564.75ZM565.007 254.73C561.266 258.876 557.195 261.883 552.798 263.782L553.591 265.618C558.288 263.59 562.587 260.397 566.492 256.07L565.007 254.73ZM552.816 263.774C548.409 265.577 543.374 266.49 537.695 266.49V268.49C543.589 268.49 548.887 267.543 553.573 265.625L552.816 263.774ZM537.695 266.49C531.476 266.49 525.608 264.838 520.074 261.517L519.045 263.232C524.878 266.732 531.101 268.49 537.695 268.49V266.49ZM520.081 261.522C514.641 258.197 510.26 253.767 506.932 248.22L505.217 249.249C508.709 255.069 513.319 259.733 519.038 263.228L520.081 261.522ZM506.939 248.232C503.719 242.697 502.115 236.825 502.115 230.6H500.115C500.115 237.188 501.817 243.406 505.211 249.238L506.939 248.232ZM502.115 230.6C502.115 223.843 503.726 217.825 506.931 212.517L505.219 211.483C501.81 217.128 500.115 223.51 500.115 230.6H502.115ZM506.935 212.51C510.15 207.084 514.514 202.871 520.039 199.858L519.081 198.102C513.239 201.288 508.613 205.756 505.215 211.49L506.935 212.51ZM520.032 199.861C525.663 196.845 531.906 195.33 538.78 195.33V193.33C531.6 193.33 525.03 194.915 519.088 198.098L520.032 199.861ZM538.78 195.33C549.224 195.33 558.102 199.431 565.468 207.705L566.962 206.375C559.241 197.702 549.829 193.33 538.78 193.33V195.33ZM565.512 206.328L516.842 254.378L518.247 255.802L566.917 207.752L565.512 206.328ZM516.912 255.864C520.377 258.699 523.766 260.823 527.078 262.212L527.852 260.368C524.757 259.07 521.532 257.06 518.178 254.316L516.912 255.864ZM527.104 262.222C530.44 263.514 534.182 264.15 538.315 264.15V262.15C534.387 262.15 530.896 261.546 527.826 260.357L527.104 262.222ZM505.075 230.135C505.075 238.957 508.007 246.539 513.868 252.827L515.331 251.463C509.826 245.557 507.075 238.467 507.075 230.135H505.075ZM515.305 252.854L560.72 207.749L559.31 206.33L513.895 251.435L515.305 252.854ZM560.675 206.289C557.203 203.238 553.798 201.046 550.456 199.752L549.734 201.617C552.799 202.804 556.006 204.848 559.355 207.791L560.675 206.289ZM550.482 199.763C547.127 198.356 543.165 197.67 538.625 197.67V199.67C542.971 199.67 546.656 200.327 549.708 201.607L550.482 199.763ZM538.625 197.67C532.169 197.67 526.365 199.1 521.24 201.983L522.22 203.726C527.015 201.029 532.474 199.67 538.625 199.67V197.67ZM521.246 201.98C516.233 204.753 512.279 208.6 509.397 213.509L511.122 214.521C513.821 209.924 517.513 206.33 522.214 203.73L521.246 201.98ZM509.397 213.509C506.51 218.429 505.075 223.98 505.075 230.135H507.075C507.075 224.303 508.43 219.108 511.122 214.521L509.397 213.509ZM644.53 195.88L645.432 196.311L646.115 194.88H644.53V195.88ZM610.275 267.645L609.373 268.077L610.277 269.962L611.177 268.076L610.275 267.645ZM575.865 195.88V194.88H574.276L574.963 196.312L575.865 195.88ZM581.29 195.88L582.192 195.448L581.919 194.88H581.29V195.88ZM610.275 256.33L609.373 256.762L610.277 258.648L611.177 256.76L610.275 256.33ZM639.105 195.88V194.88H638.474L638.202 195.449L639.105 195.88ZM643.627 195.449L609.372 267.214L611.177 268.076L645.432 196.311L643.627 195.449ZM611.177 267.213L576.767 195.448L574.963 196.312L609.373 268.077L611.177 267.213ZM575.865 196.88H581.29V194.88H575.865V196.88ZM580.388 196.312L609.373 256.762L611.177 255.898L582.192 195.448L580.388 196.312ZM611.177 256.76L640.007 196.31L638.202 195.449L609.372 255.899L611.177 256.76ZM639.105 196.88H644.53V194.88H639.105V196.88ZM661.909 178.365L661.202 179.072L661.219 179.089L661.237 179.105L661.909 178.365ZM661.909 170.77L661.237 170.03L661.219 170.046L661.202 170.063L661.909 170.77ZM669.504 170.77L668.797 171.477L668.814 171.494L668.832 171.51L669.504 170.77ZM669.504 178.365L668.832 177.625L668.814 177.641L668.797 177.658L669.504 178.365ZM663.304 195.88V194.88H662.304V195.88H663.304ZM668.264 195.88H669.264V194.88H668.264V195.88ZM668.264 265.63V266.63H669.264V265.63H668.264ZM663.304 265.63H662.304V266.63H663.304V265.63ZM665.784 178.915C664.603 178.915 663.547 178.502 662.582 177.625L661.237 179.105C662.545 180.294 664.072 180.915 665.784 180.915V178.915ZM662.616 177.658C661.783 176.824 661.359 175.793 661.359 174.49H659.359C659.359 176.287 659.969 177.839 661.202 179.072L662.616 177.658ZM661.359 174.49C661.359 173.311 661.768 172.325 662.616 171.477L661.202 170.063C659.983 171.281 659.359 172.775 659.359 174.49H661.359ZM662.582 171.51C663.547 170.633 664.603 170.22 665.784 170.22V168.22C664.072 168.22 662.545 168.841 661.237 170.03L662.582 171.51ZM665.784 170.22C666.963 170.22 667.949 170.629 668.797 171.477L670.211 170.063C668.993 168.844 667.499 168.22 665.784 168.22V170.22ZM668.832 171.51C669.774 172.367 670.209 173.344 670.209 174.49H672.209C672.209 172.742 671.507 171.24 670.177 170.03L668.832 171.51ZM670.209 174.49C670.209 175.761 669.758 176.783 668.832 177.625L670.177 179.105C671.524 177.88 672.209 176.319 672.209 174.49H670.209ZM668.797 177.658C667.949 178.506 666.963 178.915 665.784 178.915V180.915C667.499 180.915 668.993 180.291 670.211 179.072L668.797 177.658ZM663.304 196.88H668.264V194.88H663.304V196.88ZM667.264 195.88V265.63H669.264V195.88H667.264ZM668.264 264.63H663.304V266.63H668.264V264.63ZM664.304 265.63V195.88H662.304V265.63H664.304Z" fill="white"/>
<path d="M165.34 82.235L79.635 132.56L165.34 183.19V193.255L69.875 136.83V127.985L165.34 72.17V82.235Z" fill="#73C5EB"/>
<path d="M165.34 82.235L166.859 84.822L168.34 83.9524V82.235H165.34ZM79.635 132.56L78.116 129.973L73.7235 132.552L78.1091 135.143L79.635 132.56ZM165.34 183.19H168.34V181.478L166.866 180.607L165.34 183.19ZM165.34 193.255L163.814 195.838L168.34 198.513V193.255H165.34ZM69.875 136.83H66.875V138.542L68.3485 139.413L69.875 136.83ZM69.875 127.985L68.3608 125.395L66.875 126.264V127.985H69.875ZM165.34 72.17H168.34V66.9409L163.826 69.5802L165.34 72.17ZM163.821 79.648L78.116 129.973L81.1541 135.147L166.859 84.822L163.821 79.648ZM78.1091 135.143L163.814 185.773L166.866 180.607L81.1609 129.977L78.1091 135.143ZM162.34 183.19V193.255H168.34V183.19H162.34ZM166.866 190.672L71.4015 134.247L68.3485 139.413L163.814 195.838L166.866 190.672ZM72.875 136.83V127.985H66.875V136.83H72.875ZM71.3892 130.575L166.854 74.7598L163.826 69.5802L68.3608 125.395L71.3892 130.575ZM162.34 72.17V82.235H168.34V72.17H162.34Z" fill="#73C5EB"/>
<path d="M179.508 110.818V117.807L104.075 162.392V154.439L171.796 114.433L104.075 74.6682V66.7152L179.508 110.818Z" fill="#648FA3"/>
<path d="M179.508 110.818H185.508V107.376L182.536 105.638L179.508 110.818ZM179.508 117.807L182.561 122.972L185.508 121.231V117.807H179.508ZM104.075 162.392H98.075V172.908L107.128 167.557L104.075 162.392ZM104.075 154.439L101.023 149.273L98.075 151.015V154.439H104.075ZM171.796 114.433L174.848 119.599L183.619 114.418L174.834 109.259L171.796 114.433ZM104.075 74.6682H98.075V78.1029L101.037 79.8421L104.075 74.6682ZM104.075 66.7152L107.103 61.5355L98.075 56.2569V66.7152H104.075ZM173.508 110.818V117.807H185.508V110.818H173.508ZM176.455 112.642L101.022 157.227L107.128 167.557L182.561 122.972L176.455 112.642ZM110.075 162.392V154.439H98.075V162.392H110.075ZM107.127 159.605L174.848 119.599L168.744 109.267L101.023 149.273L107.127 159.605ZM174.834 109.259L107.113 69.4942L101.037 79.8421L168.758 119.607L174.834 109.259ZM110.075 74.6682V66.7152H98.075V74.6682H110.075ZM101.047 71.8948L176.48 115.998L182.536 105.638L107.103 61.5355L101.047 71.8948Z" fill="#648FA3"/>
</g>
<defs>
<clipPath id="clip0_1_2">
<rect width="775" height="298" fill="white"/>
</clipPath>
</defs>
</svg>
