<svg width="777" height="306" viewBox="0 0 777 306" fill="none" xmlns="http://www.w3.org/2000/svg">
<path d="M65.143 68.25H72.087C97.9823 68.25 117.946 75.3387 131.979 89.516C146.156 103.549 153.245 123.585 153.245 149.625C153.245 164.526 149.628 178.197 142.395 190.638C135.162 203.079 125.324 212.917 112.883 220.15C100.586 227.383 86.9877 231 72.087 231H65.143V68.25ZM73.823 224.273C87.1323 224.273 99.2843 221.018 110.279 214.508C121.274 207.853 129.954 198.812 136.319 187.383C142.829 175.954 146.084 163.368 146.084 149.625C146.084 125.61 139.791 107.165 127.205 94.29C114.764 81.27 96.9697 74.76 73.823 74.76H72.087V224.273H73.823ZM262.828 133.35L214.871 233.821L166.697 133.35H174.292L214.871 217.98L255.233 133.35H262.828ZM286.074 110.999C284.049 110.999 282.241 110.276 280.649 108.829C279.203 107.382 278.479 105.574 278.479 103.404C278.479 101.379 279.203 99.6427 280.649 98.196C282.241 96.7493 284.049 96.026 286.074 96.026C288.1 96.026 289.836 96.7493 291.282 98.196C292.874 99.6427 293.669 101.379 293.669 103.404C293.669 105.574 292.874 107.382 291.282 108.829C289.836 110.276 288.1 110.999 286.074 110.999ZM282.602 133.35H289.546V231H282.602V133.35ZM321.901 133.35H328.845V155.918C331.739 148.829 335.934 143.26 341.431 139.209C347.073 135.158 353.439 133.133 360.527 133.133C365.012 133.133 369.569 134.073 374.198 135.954V143.983C370.003 140.8 365.301 139.209 360.093 139.209C354.885 139.209 349.822 140.8 344.903 143.983C340.129 147.166 336.223 151.433 333.185 156.786C330.292 162.139 328.845 167.853 328.845 173.929V231H321.901V133.35ZM394.881 68.25H402.042V224.707H452.386V231H394.881V68.25ZM518.188 227.528C525.711 227.528 532.872 225.575 539.671 221.669C546.47 217.763 552.112 212.41 556.597 205.611V216.678C551.244 222.609 545.385 226.949 539.02 229.698C532.655 232.302 525.421 233.604 517.32 233.604C508.351 233.604 499.888 231.217 491.931 226.443C484.119 221.669 477.826 215.304 473.052 207.347C468.423 199.39 466.108 190.927 466.108 181.958C466.108 172.265 468.423 163.585 473.052 155.918C477.681 148.106 483.974 142.03 491.931 137.69C500.032 133.35 509.002 131.18 518.839 131.18C533.884 131.18 546.687 137.111 557.248 148.974L489.11 216.244C493.884 220.15 498.513 223.043 502.998 224.924C507.483 226.66 512.546 227.528 518.188 227.528ZM473.052 181.307C473.052 193.314 477.03 203.586 484.987 212.121L548.568 148.974C543.794 144.779 539.165 141.813 534.68 140.077C530.195 138.196 524.843 137.256 518.622 137.256C509.797 137.256 501.913 139.209 494.969 143.115C488.17 146.876 482.817 152.084 478.911 158.739C475.005 165.394 473.052 172.916 473.052 181.307ZM660.379 133.35L612.422 233.821L564.248 133.35H571.843L612.422 217.98L652.784 133.35H660.379ZM683.625 110.999C681.6 110.999 679.792 110.276 678.2 108.829C676.754 107.382 676.03 105.574 676.03 103.404C676.03 101.379 676.754 99.6427 678.2 98.196C679.792 96.7493 681.6 96.026 683.625 96.026C685.651 96.026 687.387 96.7493 688.833 98.196C690.425 99.6427 691.22 101.379 691.22 103.404C691.22 105.574 690.425 107.382 688.833 108.829C687.387 110.276 685.651 110.999 683.625 110.999ZM680.153 133.35H687.097V231H680.153V133.35Z" fill="white"/>
</svg>
