<svg width="777" height="306" viewBox="0 0 777 306" fill="none" xmlns="http://www.w3.org/2000/svg">
<g clip-path="url(#clip0_1_2)">
<path d="M33.8344 122.157C33.8344 200.767 97.5549 264.5 176.166 264.5V244.165C108.782 244.165 54.1656 189.54 54.1656 122.157H33.8344Z" fill="#444"/>
<path d="M176.166 40.8344C131.242 40.8344 94.8344 77.2514 94.8344 122.16C94.8344 167.083 131.242 203.5 176.166 203.5V223.834C120.012 223.834 74.5 178.31 74.5 122.157C74.5 66.0122 120.012 20.5001 176.166 20.5001V40.8344Z" fill="#444"/>
<path d="M216.834 122.166C216.834 99.7085 198.635 81.5 176.166 81.5C153.699 81.5 135.5 99.7085 135.5 122.166C135.5 144.623 153.699 162.834 176.166 162.834V183.166C142.469 183.166 115.166 155.853 115.166 122.156C115.166 88.4692 142.469 61.1656 176.166 61.1656C209.865 61.1656 237.165 88.4692 237.165 122.156L216.834 122.166Z" fill="#444"/>
<path d="M310.836 266H305.376L283.224 221.384H221.136L199.452 266H193.992L252.336 146.192L310.836 266ZM281.352 216.86L252.024 157.424L223.32 216.86H281.352ZM325.73 195.8H330.722V212.96C333.53 207.344 337.898 202.82 343.826 199.388C349.754 195.852 355.994 194.084 362.546 194.084C369.306 194.084 375.494 195.748 381.11 199.076C386.83 202.404 391.354 206.876 394.682 212.492C398.01 218.108 399.674 224.244 399.674 230.9C399.674 237.556 398.01 243.692 394.682 249.308C391.354 254.924 386.83 259.396 381.11 262.724C375.494 266.052 369.306 267.716 362.546 267.716C356.202 267.716 350.066 266 344.138 262.568C338.314 259.136 333.842 254.612 330.722 248.996V297.2H325.73V195.8ZM362.858 263.348C368.578 263.348 373.882 261.892 378.77 258.98C383.658 255.964 387.506 252.012 390.314 247.124C393.226 242.132 394.682 236.724 394.682 230.9C394.682 225.18 393.226 219.824 390.314 214.832C387.402 209.84 383.502 205.888 378.614 202.976C373.726 199.96 368.422 198.452 362.702 198.452C356.982 198.452 351.626 199.96 346.634 202.976C341.746 205.992 337.794 209.996 334.778 214.988C331.866 219.98 330.41 225.336 330.41 231.056C330.41 236.776 331.866 242.132 334.778 247.124C337.794 252.012 341.798 255.964 346.79 258.98C351.782 261.892 357.138 263.348 362.858 263.348ZM415.308 195.8H420.3V212.96C423.108 207.344 427.476 202.82 433.404 199.388C439.332 195.852 445.572 194.084 452.124 194.084C458.884 194.084 465.072 195.748 470.688 199.076C476.408 202.404 480.932 206.876 484.26 212.492C487.588 218.108 489.252 224.244 489.252 230.9C489.252 237.556 487.588 243.692 484.26 249.308C480.932 254.924 476.408 259.396 470.688 262.724C465.072 266.052 458.884 267.716 452.124 267.716C445.78 267.716 439.644 266 433.716 262.568C427.892 259.136 423.42 254.612 420.3 248.996V297.2H415.308V195.8ZM452.436 263.348C458.156 263.348 463.46 261.892 468.348 258.98C473.236 255.964 477.084 252.012 479.892 247.124C482.804 242.132 484.26 236.724 484.26 230.9C484.26 225.18 482.804 219.824 479.892 214.832C476.98 209.84 473.08 205.888 468.192 202.976C463.304 199.96 458 198.452 452.28 198.452C446.56 198.452 441.204 199.96 436.212 202.976C431.324 205.992 427.372 209.996 424.356 214.988C421.444 219.98 419.988 225.336 419.988 231.056C419.988 236.776 421.444 242.132 424.356 247.124C427.372 252.012 431.376 255.964 436.368 258.98C441.36 261.892 446.716 263.348 452.436 263.348ZM521.891 267.716C516.899 267.716 512.479 266.884 508.631 265.22C504.783 263.452 502.027 261.216 500.363 258.512V250.244C502.339 254.716 505.043 258.044 508.475 260.228C511.907 262.308 516.275 263.348 521.579 263.348C526.675 263.348 530.783 261.788 533.903 258.668C537.023 255.444 538.583 251.336 538.583 246.344C538.583 242.08 537.699 238.804 535.931 236.516C534.163 234.124 531.303 231.732 527.351 229.34L521.423 225.908C517.159 223.308 513.935 221.28 511.751 219.824C509.671 218.264 508.007 216.548 506.759 214.676C505.511 212.7 504.887 210.412 504.887 207.812C504.887 203.652 506.343 200.324 509.255 197.828C512.167 195.332 515.963 194.084 520.643 194.084C526.363 194.084 531.147 195.384 534.995 197.984V204.848C531.771 200.584 527.143 198.452 521.111 198.452C517.783 198.452 515.079 199.284 512.999 200.948C510.919 202.612 509.879 204.744 509.879 207.344C509.879 209.632 510.503 211.66 511.751 213.428C512.999 215.092 514.715 216.652 516.899 218.108C519.187 219.564 522.931 221.748 528.131 224.66C533.435 227.676 537.335 230.796 539.831 234.02C542.327 237.14 543.575 241.248 543.575 246.344C543.575 252.792 541.443 257.992 537.179 261.944C533.019 265.792 527.923 267.716 521.891 267.716ZM561.617 149H566.765V261.476H602.957V266H561.617V149ZM622.182 179.732C620.726 179.732 619.426 179.212 618.282 178.172C617.242 177.132 616.722 175.832 616.722 174.272C616.722 172.816 617.242 171.568 618.282 170.528C619.426 169.488 620.726 168.968 622.182 168.968C623.638 168.968 624.886 169.488 625.926 170.528C627.07 171.568 627.642 172.816 627.642 174.272C627.642 175.832 627.07 177.132 625.926 178.172C624.886 179.212 623.638 179.732 622.182 179.732ZM619.686 195.8H624.678V266H619.686V195.8ZM674.613 170.84C670.661 170.84 667.021 171.828 663.693 173.804C660.365 175.676 657.713 178.328 655.737 181.76C653.865 185.088 652.929 188.78 652.929 192.836V195.8H674.613V200.168H652.929V266H647.937V192.836C647.937 187.948 649.081 183.528 651.369 179.576C653.761 175.52 656.985 172.348 661.041 170.06C665.201 167.668 669.725 166.472 674.613 166.472V170.84ZM722.015 263.504C727.423 263.504 732.571 262.1 737.459 259.292C742.347 256.484 746.403 252.636 749.627 247.748V255.704C745.779 259.968 741.567 263.088 736.991 265.064C732.415 266.936 727.215 267.872 721.391 267.872C714.943 267.872 708.859 266.156 703.139 262.724C697.523 259.292 692.999 254.716 689.567 248.996C686.239 243.276 684.575 237.192 684.575 230.744C684.575 223.776 686.239 217.536 689.567 212.024C692.895 206.408 697.419 202.04 703.139 198.92C708.963 195.8 715.411 194.24 722.483 194.24C733.299 194.24 742.503 198.504 750.095 207.032L701.111 255.392C704.543 258.2 707.871 260.28 711.095 261.632C714.319 262.88 717.959 263.504 722.015 263.504ZM689.567 230.276C689.567 238.908 692.427 246.292 698.147 252.428L743.855 207.032C740.423 204.016 737.095 201.884 733.871 200.636C730.647 199.284 726.799 198.608 722.327 198.608C715.983 198.608 710.315 200.012 705.323 202.82C700.435 205.524 696.587 209.268 693.779 214.052C690.971 218.836 689.567 224.244 689.567 230.276Z" fill="#444"/>
</g>
<defs>
<clipPath id="clip0_1_2">
<rect width="777" height="306" fill="#444"/>
</clipPath>
</defs>
</svg>
