<svg height="100%" width="100%" id="svg" viewBox="0 0 1440 400" xmlns="http://www.w3.org/2000/svg" class="transition duration-300 ease-in-out delay-150"><defs><linearGradient id="gradient"><stop offset="5%" stop-color="#f3de80ff"></stop><stop offset="95%" stop-color="#e05c5cff"></stop></linearGradient></defs><path d="M 0,400 C 0,400 0,200 0,200 C 75.70182068017863,199.3397457918241 151.40364136035726,198.67949158364823 212,198 C 272.59635863964274,197.32050841635177 318.08725523874955,196.6217794572312 385,178 C 451.91274476125045,159.3782205427688 540.2473376846445,122.833390587427 623,142 C 705.7526623153555,161.166609412573 782.9233940226726,236.0446581930608 852,232 C 921.0766059773274,227.9553418069392 982.0590862246652,144.98797664032978 1050,135 C 1117.9409137753348,125.01202335967022 1192.840261078667,188.00343524562004 1259,211 C 1325.159738921333,233.99656475437996 1382.5798694606665,216.99828237718998 1440,200 C 1440,200 1440,400 1440,400 Z" stroke="none" stroke-width="0" fill="url(#gradient)" class="transition-all duration-300 ease-in-out delay-150" transform="rotate(-180 720 200)"></path></svg>