<svg width="1000" height="507" viewBox="0 0 1000 507" fill="none" xmlns="http://www.w3.org/2000/svg">
<path d="M60.5012 173.288C60.5012 266.847 136.339 342.699 229.899 342.699V318.498C149.701 318.498 84.6987 253.485 84.6987 173.288H60.5012Z" fill="#EFA2A2"/>
<path d="M229.899 76.5012C176.433 76.5012 133.101 119.843 133.101 173.291C133.101 226.758 176.433 270.1 229.899 270.1V294.301C163.067 294.301 108.9 240.12 108.9 173.288C108.9 106.467 163.067 52.3 229.899 52.3V76.5012Z" fill="#E67979"/>
<path d="M278.301 173.299C278.301 146.571 256.641 124.9 229.899 124.9C203.16 124.9 181.5 146.571 181.5 173.299C181.5 200.026 203.16 221.701 229.899 221.701V245.899C189.795 245.899 157.299 213.392 157.299 173.288C157.299 133.194 189.795 100.699 229.899 100.699C270.006 100.699 302.498 133.194 302.498 173.288L278.301 173.299Z" fill="#E05C5C"/>
<path d="M368.836 343H363.376L341.224 298.384H279.136L257.452 343H251.992L310.336 223.192L368.836 343ZM339.352 293.86L310.024 234.424L281.32 293.86H339.352ZM383.73 272.8H388.722V289.96C391.53 284.344 395.898 279.82 401.826 276.388C407.754 272.852 413.994 271.084 420.546 271.084C427.306 271.084 433.494 272.748 439.11 276.076C444.83 279.404 449.354 283.876 452.682 289.492C456.01 295.108 457.674 301.244 457.674 307.9C457.674 314.556 456.01 320.692 452.682 326.308C449.354 331.924 444.83 336.396 439.11 339.724C433.494 343.052 427.306 344.716 420.546 344.716C414.202 344.716 408.066 343 402.138 339.568C396.314 336.136 391.842 331.612 388.722 325.996V374.2H383.73V272.8ZM420.858 340.348C426.578 340.348 431.882 338.892 436.77 335.98C441.658 332.964 445.506 329.012 448.314 324.124C451.226 319.132 452.682 313.724 452.682 307.9C452.682 302.18 451.226 296.824 448.314 291.832C445.402 286.84 441.502 282.888 436.614 279.976C431.726 276.96 426.422 275.452 420.702 275.452C414.982 275.452 409.626 276.96 404.634 279.976C399.746 282.992 395.794 286.996 392.778 291.988C389.866 296.98 388.41 302.336 388.41 308.056C388.41 313.776 389.866 319.132 392.778 324.124C395.794 329.012 399.798 332.964 404.79 335.98C409.782 338.892 415.138 340.348 420.858 340.348ZM473.308 272.8H478.3V289.96C481.108 284.344 485.476 279.82 491.404 276.388C497.332 272.852 503.572 271.084 510.124 271.084C516.884 271.084 523.072 272.748 528.688 276.076C534.408 279.404 538.932 283.876 542.26 289.492C545.588 295.108 547.252 301.244 547.252 307.9C547.252 314.556 545.588 320.692 542.26 326.308C538.932 331.924 534.408 336.396 528.688 339.724C523.072 343.052 516.884 344.716 510.124 344.716C503.78 344.716 497.644 343 491.716 339.568C485.892 336.136 481.42 331.612 478.3 325.996V374.2H473.308V272.8ZM510.436 340.348C516.156 340.348 521.46 338.892 526.348 335.98C531.236 332.964 535.084 329.012 537.892 324.124C540.804 319.132 542.26 313.724 542.26 307.9C542.26 302.18 540.804 296.824 537.892 291.832C534.98 286.84 531.08 282.888 526.192 279.976C521.304 276.96 516 275.452 510.28 275.452C504.56 275.452 499.204 276.96 494.212 279.976C489.324 282.992 485.372 286.996 482.356 291.988C479.444 296.98 477.988 302.336 477.988 308.056C477.988 313.776 479.444 319.132 482.356 324.124C485.372 329.012 489.376 332.964 494.368 335.98C499.36 338.892 504.716 340.348 510.436 340.348ZM579.891 344.716C574.899 344.716 570.479 343.884 566.631 342.22C562.783 340.452 560.027 338.216 558.363 335.512V327.244C560.339 331.716 563.043 335.044 566.475 337.228C569.907 339.308 574.275 340.348 579.579 340.348C584.675 340.348 588.783 338.788 591.903 335.668C595.023 332.444 596.583 328.336 596.583 323.344C596.583 319.08 595.699 315.804 593.931 313.516C592.163 311.124 589.303 308.732 585.351 306.34L579.423 302.908C575.159 300.308 571.935 298.28 569.751 296.824C567.671 295.264 566.007 293.548 564.759 291.676C563.511 289.7 562.887 287.412 562.887 284.812C562.887 280.652 564.343 277.324 567.255 274.828C570.167 272.332 573.963 271.084 578.643 271.084C584.363 271.084 589.147 272.384 592.995 274.984V281.848C589.771 277.584 585.143 275.452 579.111 275.452C575.783 275.452 573.079 276.284 570.999 277.948C568.919 279.612 567.879 281.744 567.879 284.344C567.879 286.632 568.503 288.66 569.751 290.428C570.999 292.092 572.715 293.652 574.899 295.108C577.187 296.564 580.931 298.748 586.131 301.66C591.435 304.676 595.335 307.796 597.831 311.02C600.327 314.14 601.575 318.248 601.575 323.344C601.575 329.792 599.443 334.992 595.179 338.944C591.019 342.792 585.923 344.716 579.891 344.716ZM619.617 226H624.765V338.476H660.957V343H619.617V226ZM680.182 256.732C678.726 256.732 677.426 256.212 676.282 255.172C675.242 254.132 674.722 252.832 674.722 251.272C674.722 249.816 675.242 248.568 676.282 247.528C677.426 246.488 678.726 245.968 680.182 245.968C681.638 245.968 682.886 246.488 683.926 247.528C685.07 248.568 685.642 249.816 685.642 251.272C685.642 252.832 685.07 254.132 683.926 255.172C682.886 256.212 681.638 256.732 680.182 256.732ZM677.686 272.8H682.678V343H677.686V272.8ZM732.613 247.84C728.661 247.84 725.021 248.828 721.693 250.804C718.365 252.676 715.713 255.328 713.737 258.76C711.865 262.088 710.929 265.78 710.929 269.836V272.8H732.613V277.168H710.929V343H705.937V269.836C705.937 264.948 707.081 260.528 709.369 256.576C711.761 252.52 714.985 249.348 719.041 247.06C723.201 244.668 727.725 243.472 732.613 243.472V247.84ZM780.015 340.504C785.423 340.504 790.571 339.1 795.459 336.292C800.347 333.484 804.403 329.636 807.627 324.748V332.704C803.779 336.968 799.567 340.088 794.991 342.064C790.415 343.936 785.215 344.872 779.391 344.872C772.943 344.872 766.859 343.156 761.139 339.724C755.523 336.292 750.999 331.716 747.567 325.996C744.239 320.276 742.575 314.192 742.575 307.744C742.575 300.776 744.239 294.536 747.567 289.024C750.895 283.408 755.419 279.04 761.139 275.92C766.963 272.8 773.411 271.24 780.483 271.24C791.299 271.24 800.503 275.504 808.095 284.032L759.111 332.392C762.543 335.2 765.871 337.28 769.095 338.632C772.319 339.88 775.959 340.504 780.015 340.504ZM747.567 307.276C747.567 315.908 750.427 323.292 756.147 329.428L801.855 284.032C798.423 281.016 795.095 278.884 791.871 277.636C788.647 276.284 784.799 275.608 780.327 275.608C773.983 275.608 768.315 277.012 763.323 279.82C758.435 282.524 754.587 286.268 751.779 291.052C748.971 295.836 747.567 301.244 747.567 307.276Z" fill="#E05C5C"/>
<path d="M253.619 443.01C256.303 442.834 258.217 442.02 259.361 440.568C260.549 439.072 261.121 436.982 261.077 434.298V408.03H274.739C278.215 408.03 280.899 408.998 282.791 410.934C284.683 412.826 285.629 415.928 285.629 420.24V444H283.517V420.24C283.517 416.588 282.725 413.97 281.141 412.386C279.601 410.802 277.423 410.01 274.607 410.01H263.189V434.232C263.189 437.444 262.441 439.93 260.945 441.69C259.493 443.45 257.161 444.484 253.949 444.792L253.619 443.01ZM296.45 415.752L295.526 408.03H297.638L298.562 415.752V444H296.45V415.752ZM309.728 415.752L308.804 408.03H310.916L311.84 415.752V425.322L311.774 429.48L309.728 430.14V415.752ZM346.369 444H344.059H320.101V442.02H342.871L321.883 408.03H324.193L334.885 425.454L342.541 408.03H344.785L336.073 427.302L346.369 444ZM362.821 442.02C365.373 441.668 367.529 441.074 369.289 440.238C371.049 439.358 372.567 437.752 373.843 435.42C375.119 433.088 375.911 429.766 376.219 425.454L377.539 410.01H353.317V408.03H379.783L379.651 410.01L378.331 425.454C378.023 431.79 376.417 436.388 373.513 439.248C370.653 442.108 367.199 443.692 363.151 444L362.821 442.02ZM353.845 424.992L354.175 420.57H355.957V457.2H353.845V424.992ZM410.637 408.03V410.01L397.305 444H395.193L408.525 410.01H387.075V396.678H389.187V408.03H410.637ZM420.268 442.02H429.376C433.468 442.02 436.724 440.986 439.144 438.918C441.608 436.806 442.84 433.066 442.84 427.698V424.2C442.84 419.36 441.96 415.796 440.2 413.508C438.44 411.176 435.778 410.01 432.214 410.01H423.898L421.852 418.458C421.456 420.174 421.258 421.648 421.258 422.88C421.258 424.64 421.72 426.026 422.644 427.038C423.568 428.006 425.108 428.688 427.264 429.084L426.472 430.998C423.92 430.514 422.072 429.634 420.928 428.358C419.784 427.038 419.212 425.212 419.212 422.88C419.212 421.692 419.388 420.218 419.74 418.458L422.182 408.03H432.214C436.262 408.03 439.386 409.35 441.586 411.99C443.786 414.63 444.908 418.656 444.952 424.068V427.698C444.952 438.566 439.76 444 429.376 444H420.268V442.02ZM478.63 444L461.866 419.25L454.012 444H451.9L459.028 421.296L460.678 417.336L454.672 408.03H456.982L463.186 417.732L470.38 428.292L471.766 423.144L476.584 408.03H478.762L471.634 430.206L481.072 444H478.63ZM489.616 415.752L488.692 408.03H490.804L491.728 415.752V444H489.616V415.752ZM531.814 408.03C535.29 408.03 537.974 408.998 539.866 410.934C541.758 412.826 542.704 415.928 542.704 420.24V444H540.592H516.964H516.172V408.03H518.284H531.814ZM540.592 442.02V420.24C540.592 416.588 539.8 413.97 538.216 412.386C536.676 410.802 534.498 410.01 531.682 410.01H518.284V442.02H540.592ZM553.876 415.752L552.952 408.03H555.064L555.988 415.752V425.322L555.922 429.48L553.876 430.14V415.752ZM584.379 420.24C584.379 416.588 583.587 413.97 582.003 412.386C580.463 410.802 578.285 410.01 575.469 410.01H564.579V408.03H575.601C579.077 408.03 581.761 408.998 583.653 410.934C585.545 412.826 586.491 415.928 586.491 420.24V444H584.379V420.24ZM593.416 443.01C596.1 442.834 598.014 442.02 599.158 440.568C600.346 439.072 600.918 436.982 600.874 434.298V408.03H614.536C618.012 408.03 620.696 408.998 622.588 410.934C624.48 412.826 625.426 415.928 625.426 420.24V444H623.314V420.24C623.314 416.588 622.522 413.97 620.938 412.386C619.398 410.802 617.22 410.01 614.404 410.01H602.986V434.232C602.986 437.444 602.238 439.93 600.742 441.69C599.29 443.45 596.958 444.484 593.746 444.792L593.416 443.01ZM659.743 444L642.979 419.25L635.125 444H633.013L640.141 421.296L641.791 417.336L635.785 408.03H638.095L644.299 417.732L651.493 428.292L652.879 423.144L657.697 408.03H659.875L652.747 430.206L662.185 444H659.743ZM697.67 408.03C701.234 408.03 703.94 409.174 705.788 411.462C707.636 413.75 708.56 417.116 708.56 421.56V444H706.448V421.56C706.448 417.776 705.7 414.916 704.204 412.98C702.708 411 700.486 410.01 697.538 410.01H684.8V444H682.688V408.03H697.67ZM719.714 415.752L718.79 408.03H720.902L721.826 415.752V444H719.714V415.752ZM728.767 443.01C731.451 442.834 733.365 442.02 734.509 440.568C735.697 439.072 736.269 436.982 736.225 434.298V408.03H749.887C753.363 408.03 756.047 408.998 757.939 410.934C759.831 412.826 760.777 415.928 760.777 420.24V444H758.665V420.24C758.665 416.588 757.873 413.97 756.289 412.386C754.749 410.802 752.571 410.01 749.755 410.01H738.337V434.232C738.337 437.444 737.589 439.93 736.093 441.69C734.641 443.45 732.309 444.484 729.097 444.792L728.767 443.01ZM771.599 415.752L770.675 408.03H772.787L773.711 415.752V425.322L773.645 429.48L771.599 430.14V415.752ZM785.008 442.02H794.116C798.208 442.02 801.464 440.986 803.884 438.918C806.348 436.806 807.58 433.066 807.58 427.698V424.2C807.58 419.36 806.7 415.796 804.94 413.508C803.18 411.176 800.518 410.01 796.954 410.01H788.638L786.592 418.458C786.196 420.174 785.998 421.648 785.998 422.88C785.998 424.64 786.46 426.026 787.384 427.038C788.308 428.006 789.848 428.688 792.004 429.084L791.212 430.998C788.66 430.514 786.812 429.634 785.668 428.358C784.524 427.038 783.952 425.212 783.952 422.88C783.952 421.692 784.128 420.218 784.48 418.458L786.922 408.03H796.954C801.002 408.03 804.126 409.35 806.326 411.99C808.526 414.63 809.648 418.656 809.692 424.068V427.698C809.692 438.566 804.5 444 794.116 444H785.008V442.02Z" fill="#6B6B6B"/>
</svg>
